<?xml version="1.0" standalone="no"?><!DOCTYPE svg PUBLIC "-//W3C//DTD SVG 1.1//EN" "http://www.w3.org/Graphics/SVG/1.1/DTD/svg11.dtd"><svg t="1754608692131" class="icon" viewBox="0 0 1024 1024" version="1.1" xmlns="http://www.w3.org/2000/svg" p-id="26620" xmlns:xlink="http://www.w3.org/1999/xlink" width="256" height="256"><path d="M76.833 382.604L404.835 54.651c56.895-56.888 157.619-56.791 214.434 0.032L947.175 382.62c59.18 59.237 59.18 155.23-0.016 214.435-59.253 59.14-155.19 59.188-214.411-0.032l-69.081-69.114v332.387c0 83.736-67.895 151.615-151.623 151.615-83.744 0-151.59-67.88-151.59-151.615v-332.45l-69.218 69.209a151.326 151.326 0 0 1-107.21 44.373c-38.76 0-77.602-14.815-107.2-44.405-59.189-59.229-59.189-155.182 0.007-214.419z" fill="#FFFFFF" p-id="26621"></path><path d="M510.088 12.121c40.06-0.473 80.289 13.67 109.173 42.562L947.167 382.62c59.18 59.237 59.18 155.23-0.017 214.435-59.252 59.14-155.19 59.188-214.41-0.032l-69.081-69.114v332.387c0 83.736-67.895 151.615-151.623 151.615-0.657 0-1.29-0.097-1.948-0.097V12.121z" fill="#E9F1F4" p-id="26622"></path><path d="M291.228 597.055a151.222 151.222 0 0 1-182.72 24.05l296.327-296.294c56.895-56.856 157.619-56.792 214.434 0.048l296.215 296.246c-57.962 33.366-133.216 25.462-182.736-24.082l-69.081-69.114v332.387c0 83.736-67.895 151.615-151.623 151.615-83.744 0-151.59-67.88-151.59-151.615v-332.45l-69.226 69.209z" fill="#D8E5EA" p-id="26623"></path><path d="M511.996 282.21v729.7c-83.728-0.015-151.55-67.894-151.55-151.614v-332.45l-69.218 69.209a151.222 151.222 0 0 1-182.72 24.05l296.327-296.294c28.42-28.404 67.798-42.602 107.161-42.602z" fill="#E9F1F4" p-id="26624"></path><path d="M512.036 1023.936c-90.214 0-163.616-73.41-163.616-163.64V556.874l-48.694 48.679c-30.961 30.897-72.048 47.9-115.715 47.9a162.566 162.566 0 0 1-115.707-47.932c-63.75-63.815-63.742-167.625 0.016-231.423L396.329 46.145C425.663 16.819 467.823 0 512.012 0h0.072c44.197 0.016 86.358 16.851 115.683 46.177l327.905 327.937c63.774 63.83 63.766 167.657-0.016 231.439-63.854 63.742-167.664 63.71-231.414-0.032l-48.558-48.583v303.35c0 90.238-73.41 163.648-163.648 163.648zM360.446 515.82a12.017 12.017 0 0 1 12.025 12.025v332.451c0 76.97 62.611 139.59 139.565 139.59 76.978 0 139.597-62.628 139.597-139.59V527.909a12.017 12.017 0 1 1 20.532-8.505l69.08 69.113c54.38 54.37 142.941 54.394 197.416 0.024 54.402-54.402 54.41-142.973 0.008-197.423L610.764 63.181c-24.853-24.852-60.824-39.114-98.696-39.13h-0.056c-37.864 0-73.82 14.245-98.68 39.098L85.34 391.109c-54.394 54.427-54.402 142.99-0.024 197.416a138.691 138.691 0 0 0 98.696 40.886c37.246 0 72.312-14.519 98.72-40.862l69.209-69.202a12.025 12.025 0 0 1 8.505-3.527z" fill="#33363A" p-id="26625"></path><path d="M664.517 539.935c-3.079 0-6.157-1.17-8.506-3.52l-72.914-72.865a12.025 12.025 0 1 1 17.012-17.012l72.913 72.874a12.025 12.025 0 0 1-8.505 20.523z m-305.05 0a12.033 12.033 0 0 1-8.505-20.523l72.897-72.874a12.041 12.041 0 0 1 17.012 0 12.041 12.041 0 0 1 0 17.012l-72.898 72.865a11.985 11.985 0 0 1-8.506 3.52z" fill="#33363A" p-id="26626"></path><path d="M651.682 409.332c0 77.162-62.548 139.702-139.694 139.702-77.138 0-139.686-62.54-139.686-139.702 0-77.13 62.54-139.67 139.686-139.67s139.694 62.54 139.694 139.67z" fill="#FF8F8F" p-id="26627"></path><path d="M651.682 409.332c0 59.108-62.548 107.01-139.694 107.01-77.138 0-139.686-47.902-139.686-107.01 0-59.06 62.54-106.993 139.686-106.993s139.694 47.933 139.694 106.993z" fill="#FF1A1A" p-id="26628"></path><path d="M372.302 409.332c0 77.162 62.54 139.702 139.686 139.702s139.694-62.54 139.694-139.702h-279.38z" fill="#FFFFFF" p-id="26629"></path><path d="M511.988 516.341c77.146 0 139.694-47.9 139.694-107.009h-279.38c0 59.108 62.548 107.01 139.686 107.01z" fill="#D8E5EA" p-id="26630"></path><path d="M511.988 257.637c-83.656 0-151.71 68.047-151.71 151.695 0 83.664 68.054 151.727 151.71 151.727s151.719-68.063 151.719-151.727c0-83.648-68.063-151.695-151.719-151.695z m0 24.051c66.331 0 120.974 50.859 127.059 115.619h-254.11c6.093-64.76 60.72-115.619 127.051-115.619z m0 255.32c-66.331 0-120.966-50.874-127.051-115.65h254.11c-6.085 64.776-60.72 115.65-127.059 115.65z" fill="#33363A" p-id="26631"></path><path d="M465.803 425.342a46.185 46.185 0 1 0 92.37 0 46.185 46.185 0 1 0-92.37 0z" fill="#A7BBC1" p-id="26632"></path><path d="M465.803 409.645a46.185 46.185 0 1 0 92.37 0 46.185 46.185 0 1 0-92.37 0z" fill="#FFFFFF" p-id="26633"></path><path d="M479.335 442.306a46.193 46.193 0 0 1 65.314-65.322" fill="#D8E5EA" p-id="26634"></path><path d="M511.996 467.863a57.866 57.866 0 0 1-41.167-17.044 57.834 57.834 0 0 1-17.043-41.174c0-15.553 6.052-30.176 17.043-41.167a57.866 57.866 0 0 1 41.167-17.043c15.545 0 30.16 6.052 41.15 17.043a57.801 57.801 0 0 1 17.06 41.167c0 15.553-6.06 30.175-17.052 41.166a57.826 57.826 0 0 1-41.158 17.052z m0-92.386a33.943 33.943 0 0 0-24.163 10.013 33.911 33.911 0 0 0-10.005 24.155c0 9.131 3.552 17.71 10.005 24.163 6.454 6.453 15.032 10.005 24.163 10.005s17.701-3.552 24.147-10.005c6.461-6.454 10.013-15.032 10.013-24.163s-3.552-17.701-10.005-24.155h-0.008a33.911 33.911 0 0 0-24.147-10.013zM550.124 708.48c-3.078 0-6.157-1.17-8.506-3.518l-29.622-29.63-29.622 29.63a12.025 12.025 0 0 1-17.012-17.004l38.128-38.144c4.514-4.514 12.498-4.514 17.012 0l38.128 38.144a12.033 12.033 0 0 1-8.506 20.523z" fill="#33363A" p-id="26635"></path><path d="M511.988 756.406a12.025 12.025 0 0 1-12.025-12.026v-86.069a12.025 12.025 0 1 1 24.05 0v86.07a12.025 12.025 0 0 1-12.025 12.025z m0.008 36.156a12.017 12.017 0 0 1-12.025-12.026c0-3.206 1.282-6.253 3.527-8.506 4.49-4.489 12.506-4.489 16.996 0a12.025 12.025 0 0 1-8.498 20.532z m0 36.075a12.017 12.017 0 0 1-12.025-12.025c0-3.207 1.282-6.253 3.527-8.506 4.49-4.49 12.506-4.49 16.996 0a12.025 12.025 0 0 1-8.498 20.531z m0 36.076c-3.127 0-6.253-1.282-8.498-3.527a12.001 12.001 0 0 1 0-17.004c4.49-4.49 12.587-4.49 16.996 0a12.025 12.025 0 0 1-8.498 20.531zM252.651 847.188l-38.128-38.144-0.008-0.008a12.001 12.001 0 0 0-16.996 0l-0.008 0.008-38.128 38.144a12.033 12.033 0 0 0 17.012 17.004l17.597-17.605v57.032a12.025 12.025 0 1 0 24.05 0v-57.032l17.597 17.605c2.35 2.35 5.428 3.52 8.506 3.52s6.157-1.17 8.506-3.52a12.025 12.025 0 0 0 0-17.004z m-55.156 84.065c-2.245 2.245-3.527 5.371-3.527 8.498 0 3.135 1.282 6.253 3.527 8.506a12.147 12.147 0 0 0 8.498 3.52c3.207 0 6.253-1.275 8.578-3.52 2.164-2.245 3.447-5.371 3.447-8.506 0-3.127-1.283-6.245-3.527-8.498-4.498-4.49-12.515-4.49-16.996 0z m0 36.076c-2.245 2.245-3.527 5.371-3.527 8.498 0 3.134 1.282 6.253 3.527 8.506a12.01 12.01 0 0 0 20.523-8.506c0-3.127-1.283-6.245-3.527-8.498-4.498-4.49-12.515-4.49-16.996 0z m0 36.076c-2.245 2.244-3.527 5.371-3.527 8.498 0 3.134 1.282 6.253 3.527 8.505 2.245 2.245 5.371 3.52 8.498 3.52s6.253-1.275 8.578-3.52c2.164-2.244 3.447-5.37 3.447-8.505 0-3.127-1.283-6.246-3.527-8.498-4.498-4.49-12.515-4.49-16.996 0zM864.609 847.188l-38.128-38.144-0.008-0.008a12.001 12.001 0 0 0-16.996 0l-0.008 0.008-38.128 38.144a12.033 12.033 0 0 0 17.012 17.004l17.597-17.605v57.032a12.025 12.025 0 1 0 24.05 0v-57.032l17.597 17.605c2.35 2.35 5.428 3.52 8.506 3.52s6.157-1.17 8.506-3.52a12.033 12.033 0 0 0 0-17.004z m-55.196 84.065c-2.165 2.245-3.447 5.371-3.447 8.498a12.01 12.01 0 0 0 20.523 8.506 12.16 12.16 0 0 0 3.527-8.506c0-3.127-1.282-6.245-3.527-8.498-4.481-4.49-12.498-4.49-17.076 0z m0.088 36.076c-2.244 2.245-3.527 5.371-3.527 8.498a12.01 12.01 0 0 0 20.523 8.506 12.16 12.16 0 0 0 3.527-8.506c0-3.127-1.282-6.245-3.527-8.498-4.49-4.49-12.595-4.49-16.996 0z m-0.088 36.076c-2.165 2.244-3.447 5.371-3.447 8.498a12.01 12.01 0 0 0 20.523 8.505 12.16 12.16 0 0 0 3.527-8.505c0-3.127-1.282-6.246-3.527-8.498-4.481-4.49-12.498-4.49-17.076 0z" fill="#33363A" p-id="26636"></path></svg>