<?xml version="1.0" standalone="no"?><!DOCTYPE svg PUBLIC "-//W3C//DTD SVG 1.1//EN" "http://www.w3.org/Graphics/SVG/1.1/DTD/svg11.dtd"><svg t="1755076460925" class="icon" viewBox="0 0 1024 1024" version="1.1" xmlns="http://www.w3.org/2000/svg" p-id="6542" xmlns:xlink="http://www.w3.org/1999/xlink" width="256" height="256"><path d="M864.256 1023.7952H159.744c-87.8592 0-159.744-71.68-159.744-159.5392V160.3584A160.1536 160.1536 0 0 1 159.744 0.8192h704.512A160.1536 160.1536 0 0 1 1024 160.3584V864.256a160.0512 160.0512 0 0 1-159.744 159.5392z" fill="#09BB07" p-id="6543"></path><path d="M381.2352 148.3776c-173.9776 0-316.5184 118.5792-316.5184 269.0048 0 86.8352 47.36 158.208 126.5152 213.504l-31.6416 95.1296 110.7456-55.3984c39.6288 7.936 71.3728 15.8208 110.8992 15.8208 9.984 0 19.8656-0.512 29.5936-1.2288a236.9536 236.9536 0 0 1-9.728-66.4064c0-138.24 118.784-250.368 269.1584-250.368 10.24 0 20.48 0.7168 30.5152 1.8432-27.5456-127.3344-163.84-221.9008-319.488-221.9008zM277.504 369.8688a43.52 43.52 0 1 1 0-87.04 43.52 43.52 0 0 1 0 87.04z m218.624 0a43.52 43.52 0 1 1 0-87.04 43.52 43.52 0 0 1 0 87.04z" fill="#FFFFFF" p-id="6544"></path><path d="M959.2832 615.1168c0-126.464-126.6176-229.632-268.9024-229.632-150.6304 0-269.312 103.1168-269.312 229.632 0 126.72 118.5792 229.5296 269.312 229.5296 31.5392 0 63.3856-7.8848 95.0272-15.8208l86.784 47.5136-23.808-79.104c63.488-47.616 110.7968-110.6944 110.8992-182.1184z m-351.9488-34.8672a34.5088 34.5088 0 1 1 0-69.0176 34.5088 34.5088 0 0 1 0 69.0176z m172.7488 0a34.5088 34.5088 0 1 1 0-69.0176 34.5088 34.5088 0 0 1 0 69.0176z" fill="#FFFFFF" p-id="6545"></path></svg>